<svg width="16" height="16" fill="none" xmlns="http://www.w3.org/2000/svg"><g clip-path="url(#a)"><path d="M.962 6.877c.065-.01.131-.016.198-.015h11.287l-.246-.114a2.289 2.289 0 0 1-.646-.458L8.389 3.125a1.185 1.185 0 0 1-.166-1.517 1.145 1.145 0 0 1 1.717-.15l5.724 5.725a1.145 1.145 0 0 1 .001 1.619L9.94 14.528a1.145 1.145 0 0 1-1.717-.115 1.185 1.185 0 0 1 .166-1.517l3.16-3.17a2.29 2.29 0 0 1 .572-.419l.344-.154H1.223A1.185 1.185 0 0 1 .015 8.19a1.145 1.145 0 0 1 .947-1.313Z" fill="#2194FF"/></g><defs><clipPath id="a"><path fill="#fff" transform="matrix(-1 0 0 1 16 0)" d="M0 0h16v16H0z"/></clipPath></defs></svg>