<svg width="25" height="25" fill="none" xmlns="http://www.w3.org/2000/svg"><g clip-path="url(#a)" fill="#2194FF"><path d="M12.5 6.238a6.27 6.27 0 0 0-6.262 6.263 6.27 6.27 0 0 0 6.262 6.262 6.27 6.27 0 0 0 6.262-6.262A6.27 6.27 0 0 0 12.5 6.238Zm0-1.84a1.222 1.222 0 0 1-1.222-1.222V1.222a1.222 1.222 0 1 1 2.444 0v1.954c0 .675-.548 1.222-1.222 1.222Zm0 16.204c-.675 0-1.222.547-1.222 1.221v1.955a1.222 1.222 0 1 0 2.444 0v-1.954c0-.675-.548-1.222-1.222-1.222ZM18.229 6.77a1.223 1.223 0 0 1 0-1.727l1.382-1.382a1.223 1.223 0 0 1 1.728 1.728L19.956 6.77a1.222 1.222 0 0 1-1.727 0ZM6.77 18.23a1.22 1.22 0 0 0-1.727 0l-1.382 1.38a1.222 1.222 0 0 0 1.728 1.728l1.382-1.383a1.22 1.22 0 0 0 0-1.726Zm13.832-5.73c0-.675.547-1.222 1.221-1.222h1.955a1.222 1.222 0 1 1 0 2.443h-1.954a1.221 1.221 0 0 1-1.222-1.221Zm-16.204 0c0-.675-.547-1.222-1.222-1.222H1.222a1.222 1.222 0 1 0 0 2.443h1.954c.675 0 1.222-.546 1.222-1.221Zm13.831 5.73a1.223 1.223 0 0 1 1.727 0l1.383 1.382a1.22 1.22 0 1 1-1.728 1.727l-1.383-1.382a1.22 1.22 0 0 1 0-1.727ZM6.77 6.77a1.222 1.222 0 0 0 0-1.727L5.39 3.661A1.222 1.222 0 0 0 3.66 5.39l1.383 1.38a1.22 1.22 0 0 0 1.728 0Z"/></g><defs><clipPath id="a"><path fill="#fff" d="M0 0h25v25H0z"/></clipPath></defs></svg>